<mxfile host="app.diagrams.net" modified="2022-11-10T01:49:45.381Z" agent="5.0 (Windows NT 10.0; Win64; x64) AppleWebKit/537.36 (KHTML, like Gecko) Chrome/107.0.0.0 Safari/537.36" etag="o4QOb5YR-Wt9JotJA6bZ" version="20.1.1" type="github">
  <diagram id="IB4J653lEA2JT-IRE_TD" name="Page-1">
    <mxGraphModel dx="2391" dy="2467" grid="1" gridSize="10" guides="1" tooltips="1" connect="1" arrows="1" fold="1" page="1" pageScale="1" pageWidth="827" pageHeight="1169" math="0" shadow="0">
      <root>
        <mxCell id="0" />
        <mxCell id="1" parent="0" />
        <mxCell id="LnWvkaZ6cpwe4d5sANfP-64" value="" style="rounded=1;whiteSpace=wrap;html=1;fontSize=30;strokeColor=default;strokeWidth=2;fillColor=#FFFFFF;" vertex="1" parent="1">
          <mxGeometry x="-130" y="-520" width="2680" height="1689" as="geometry" />
        </mxCell>
        <mxCell id="LnWvkaZ6cpwe4d5sANfP-65" value="Нажатие на поиск и &lt;br&gt;ввод с клавиатуры текста" style="edgeStyle=none;rounded=0;orthogonalLoop=1;jettySize=auto;html=1;exitX=0.849;exitY=0.001;exitDx=0;exitDy=0;fontSize=30;startArrow=none;startFill=0;endArrow=classic;endFill=1;endSize=9;strokeColor=#080000;strokeWidth=2;entryX=0.5;entryY=1;entryDx=0;entryDy=0;exitPerimeter=0;" edge="1" parent="1" source="LnWvkaZ6cpwe4d5sANfP-1" target="LnWvkaZ6cpwe4d5sANfP-66">
          <mxGeometry x="0.129" y="-187" relative="1" as="geometry">
            <mxPoint y="-1" as="offset" />
          </mxGeometry>
        </mxCell>
        <mxCell id="LnWvkaZ6cpwe4d5sANfP-1" value="" style="rounded=1;whiteSpace=wrap;html=1;strokeWidth=2;" vertex="1" parent="1">
          <mxGeometry x="50" y="-140" width="2430" height="1260" as="geometry" />
        </mxCell>
        <mxCell id="LnWvkaZ6cpwe4d5sANfP-36" value="нажатие на имя&lt;br&gt;&amp;nbsp;пользователя&lt;br&gt;&amp;nbsp;на панели навигации" style="edgeStyle=none;rounded=0;orthogonalLoop=1;jettySize=auto;html=1;entryX=1;entryY=0.5;entryDx=0;entryDy=0;fontSize=26;startArrow=none;startFill=0;endArrow=classic;endFill=1;strokeWidth=2;" edge="1" parent="1" source="LnWvkaZ6cpwe4d5sANfP-35" target="LnWvkaZ6cpwe4d5sANfP-20">
          <mxGeometry x="0.0266" y="69" relative="1" as="geometry">
            <mxPoint x="1" as="offset" />
          </mxGeometry>
        </mxCell>
        <mxCell id="LnWvkaZ6cpwe4d5sANfP-35" value="" style="rounded=1;whiteSpace=wrap;html=1;fontSize=26;strokeWidth=2;" vertex="1" parent="1">
          <mxGeometry x="910" y="-80" width="1480" height="1150" as="geometry" />
        </mxCell>
        <mxCell id="LnWvkaZ6cpwe4d5sANfP-2" value="" style="ellipse;html=1;shape=endState;fillColor=#000000;strokeColor=#ff0000;" vertex="1" parent="1">
          <mxGeometry x="-458" y="700" width="90" height="90" as="geometry" />
        </mxCell>
        <mxCell id="LnWvkaZ6cpwe4d5sANfP-28" value="нажатие ПКМ &lt;br&gt;по жанру" style="edgeStyle=none;rounded=0;orthogonalLoop=1;jettySize=auto;html=1;exitX=1;exitY=1;exitDx=0;exitDy=0;entryX=0.25;entryY=0;entryDx=0;entryDy=0;fontSize=26;startArrow=none;startFill=0;endArrow=classic;endFill=1;strokeWidth=2;" edge="1" parent="1" source="LnWvkaZ6cpwe4d5sANfP-11" target="LnWvkaZ6cpwe4d5sANfP-17">
          <mxGeometry x="0.4348" y="59" relative="1" as="geometry">
            <mxPoint as="offset" />
          </mxGeometry>
        </mxCell>
        <mxCell id="LnWvkaZ6cpwe4d5sANfP-31" value="нажатие ПКМ&lt;br&gt;на актера озвучания" style="edgeStyle=none;rounded=0;orthogonalLoop=1;jettySize=auto;html=1;exitX=0.5;exitY=0;exitDx=0;exitDy=0;entryX=0.5;entryY=1;entryDx=0;entryDy=0;fontSize=26;startArrow=none;startFill=0;endArrow=classic;endFill=1;strokeWidth=2;" edge="1" parent="1" source="LnWvkaZ6cpwe4d5sANfP-11" target="LnWvkaZ6cpwe4d5sANfP-23">
          <mxGeometry x="0.1111" y="68" relative="1" as="geometry">
            <mxPoint y="-1" as="offset" />
          </mxGeometry>
        </mxCell>
        <mxCell id="LnWvkaZ6cpwe4d5sANfP-33" style="edgeStyle=none;rounded=0;orthogonalLoop=1;jettySize=auto;html=1;exitX=1;exitY=0.75;exitDx=0;exitDy=0;fontSize=26;startArrow=none;startFill=0;endArrow=classic;endFill=1;strokeWidth=2;" edge="1" parent="1" source="LnWvkaZ6cpwe4d5sANfP-11">
          <mxGeometry relative="1" as="geometry">
            <mxPoint x="1950" y="530" as="targetPoint" />
          </mxGeometry>
        </mxCell>
        <mxCell id="LnWvkaZ6cpwe4d5sANfP-55" value="нажатие по &lt;br&gt;студии аниме" style="edgeLabel;html=1;align=center;verticalAlign=middle;resizable=0;points=[];fontSize=26;" vertex="1" connectable="0" parent="LnWvkaZ6cpwe4d5sANfP-33">
          <mxGeometry x="0.1166" y="-3" relative="1" as="geometry">
            <mxPoint x="5" y="18" as="offset" />
          </mxGeometry>
        </mxCell>
        <mxCell id="LnWvkaZ6cpwe4d5sANfP-47" value="нажатие &quot;назад&quot;" style="edgeStyle=none;rounded=0;orthogonalLoop=1;jettySize=auto;html=1;exitX=0;exitY=0.5;exitDx=0;exitDy=0;entryX=1;entryY=0.25;entryDx=0;entryDy=0;fontSize=26;startArrow=none;startFill=0;endArrow=classic;endFill=1;strokeWidth=2;" edge="1" parent="1" source="LnWvkaZ6cpwe4d5sANfP-11" target="LnWvkaZ6cpwe4d5sANfP-21">
          <mxGeometry x="-0.0565" y="-9" relative="1" as="geometry">
            <mxPoint y="1" as="offset" />
          </mxGeometry>
        </mxCell>
        <mxCell id="LnWvkaZ6cpwe4d5sANfP-49" value="нажатие &quot;назад&quot;" style="edgeStyle=none;rounded=0;orthogonalLoop=1;jettySize=auto;html=1;exitX=0;exitY=0;exitDx=0;exitDy=0;entryX=1;entryY=0.5;entryDx=0;entryDy=0;fontSize=26;startArrow=none;startFill=0;endArrow=classic;endFill=1;strokeWidth=2;" edge="1" parent="1" source="LnWvkaZ6cpwe4d5sANfP-11" target="LnWvkaZ6cpwe4d5sANfP-19">
          <mxGeometry x="-0.0678" y="-28" relative="1" as="geometry">
            <Array as="points">
              <mxPoint x="1040" y="230" />
              <mxPoint x="940" y="150" />
              <mxPoint x="820" y="70" />
            </Array>
            <mxPoint x="1" as="offset" />
          </mxGeometry>
        </mxCell>
        <mxCell id="LnWvkaZ6cpwe4d5sANfP-51" style="edgeStyle=none;rounded=0;orthogonalLoop=1;jettySize=auto;html=1;exitX=0.25;exitY=1;exitDx=0;exitDy=0;entryX=0.33;entryY=0;entryDx=0;entryDy=0;entryPerimeter=0;fontSize=26;startArrow=none;startFill=0;endArrow=classic;endFill=1;strokeWidth=2;" edge="1" parent="1" source="LnWvkaZ6cpwe4d5sANfP-11" target="LnWvkaZ6cpwe4d5sANfP-13">
          <mxGeometry relative="1" as="geometry" />
        </mxCell>
        <mxCell id="LnWvkaZ6cpwe4d5sANfP-53" value="нажатие&lt;br&gt;&quot;назад&quot;" style="edgeLabel;html=1;align=center;verticalAlign=middle;resizable=0;points=[];fontSize=26;" vertex="1" connectable="0" parent="LnWvkaZ6cpwe4d5sANfP-51">
          <mxGeometry x="-0.2059" y="-1" relative="1" as="geometry">
            <mxPoint x="-60" y="31" as="offset" />
          </mxGeometry>
        </mxCell>
        <mxCell id="LnWvkaZ6cpwe4d5sANfP-11" value="Просмотр страницы &#xa;выбранного аниме" style="swimlane;childLayout=stackLayout;horizontal=1;startSize=80;horizontalStack=0;rounded=1;fontSize=26;fontStyle=0;strokeWidth=2;resizeParent=0;resizeLast=1;shadow=0;dashed=0;align=center;" vertex="1" parent="1">
          <mxGeometry x="1112.5" y="352.5" width="410" height="175" as="geometry" />
        </mxCell>
        <mxCell id="LnWvkaZ6cpwe4d5sANfP-24" value="нажатие ПКМ по жанру&lt;br&gt;&amp;nbsp;на карточке аниме" style="rounded=0;orthogonalLoop=1;jettySize=auto;html=1;exitX=1;exitY=0.5;exitDx=0;exitDy=0;fontSize=26;startArrow=none;startFill=0;endArrow=classic;endFill=1;strokeWidth=2;entryX=0;entryY=0.75;entryDx=0;entryDy=0;" edge="1" parent="1" source="LnWvkaZ6cpwe4d5sANfP-13" target="LnWvkaZ6cpwe4d5sANfP-17">
          <mxGeometry x="0.1359" y="-59" relative="1" as="geometry">
            <mxPoint x="1960" y="770" as="targetPoint" />
            <mxPoint x="-1" as="offset" />
          </mxGeometry>
        </mxCell>
        <mxCell id="LnWvkaZ6cpwe4d5sANfP-50" style="edgeStyle=none;rounded=0;orthogonalLoop=1;jettySize=auto;html=1;exitX=0.5;exitY=0;exitDx=0;exitDy=0;entryX=0.5;entryY=1;entryDx=0;entryDy=0;fontSize=26;startArrow=none;startFill=0;endArrow=classic;endFill=1;strokeWidth=2;" edge="1" parent="1" source="LnWvkaZ6cpwe4d5sANfP-13" target="LnWvkaZ6cpwe4d5sANfP-11">
          <mxGeometry relative="1" as="geometry" />
        </mxCell>
        <mxCell id="LnWvkaZ6cpwe4d5sANfP-52" value="нажатие на &lt;br&gt;карточку аниме" style="edgeLabel;html=1;align=center;verticalAlign=middle;resizable=0;points=[];fontSize=26;" vertex="1" connectable="0" parent="LnWvkaZ6cpwe4d5sANfP-50">
          <mxGeometry x="-0.3519" y="-1" relative="1" as="geometry">
            <mxPoint x="96" y="-20" as="offset" />
          </mxGeometry>
        </mxCell>
        <mxCell id="LnWvkaZ6cpwe4d5sANfP-13" value="Просмотр главной страницы" style="swimlane;childLayout=stackLayout;horizontal=1;startSize=50;horizontalStack=0;rounded=1;fontSize=26;fontStyle=0;strokeWidth=2;resizeParent=0;resizeLast=1;shadow=0;dashed=0;align=center;" vertex="1" parent="1">
          <mxGeometry x="1112.5" y="780" width="455" height="150" as="geometry" />
        </mxCell>
        <mxCell id="LnWvkaZ6cpwe4d5sANfP-25" value="нажатие &lt;br&gt;&quot;назад&quot;" style="edgeStyle=none;rounded=0;orthogonalLoop=1;jettySize=auto;html=1;exitX=0;exitY=0.5;exitDx=0;exitDy=0;entryX=1;entryY=0.25;entryDx=0;entryDy=0;fontSize=26;startArrow=none;startFill=0;endArrow=classic;endFill=1;strokeWidth=2;" edge="1" parent="1" source="LnWvkaZ6cpwe4d5sANfP-17" target="LnWvkaZ6cpwe4d5sANfP-13">
          <mxGeometry x="-0.052" y="-18" relative="1" as="geometry">
            <mxPoint as="offset" />
          </mxGeometry>
        </mxCell>
        <mxCell id="LnWvkaZ6cpwe4d5sANfP-29" value="нажатие &lt;br&gt;&quot;назад&quot;" style="edgeStyle=none;rounded=0;orthogonalLoop=1;jettySize=auto;html=1;exitX=0;exitY=0;exitDx=0;exitDy=0;entryX=0.75;entryY=1;entryDx=0;entryDy=0;fontSize=26;startArrow=none;startFill=0;endArrow=classic;endFill=1;strokeWidth=2;" edge="1" parent="1" source="LnWvkaZ6cpwe4d5sANfP-17" target="LnWvkaZ6cpwe4d5sANfP-11">
          <mxGeometry x="-0.0126" y="28" relative="1" as="geometry">
            <mxPoint x="-1" as="offset" />
          </mxGeometry>
        </mxCell>
        <mxCell id="LnWvkaZ6cpwe4d5sANfP-17" value="Просмотр страницы &#xa;выбранного жанра" style="swimlane;childLayout=stackLayout;horizontal=1;startSize=80;horizontalStack=0;rounded=1;fontSize=26;fontStyle=0;strokeWidth=2;resizeParent=0;resizeLast=1;shadow=0;dashed=0;align=center;" vertex="1" parent="1">
          <mxGeometry x="1920" y="780" width="420" height="160" as="geometry" />
        </mxCell>
        <mxCell id="LnWvkaZ6cpwe4d5sANfP-34" value="нажатие&lt;br&gt;&quot;назад&quot;" style="edgeStyle=none;rounded=0;orthogonalLoop=1;jettySize=auto;html=1;fontSize=26;startArrow=none;startFill=0;endArrow=classic;endFill=1;strokeWidth=2;entryX=1;entryY=0.5;entryDx=0;entryDy=0;" edge="1" parent="1" target="LnWvkaZ6cpwe4d5sANfP-11">
          <mxGeometry x="-0.0319" y="-17" relative="1" as="geometry">
            <mxPoint x="1950" y="480" as="sourcePoint" />
            <mxPoint x="1560" y="330" as="targetPoint" />
            <mxPoint x="-1" as="offset" />
          </mxGeometry>
        </mxCell>
        <mxCell id="LnWvkaZ6cpwe4d5sANfP-18" value="Просмотр страницы &#xa;выбранной студии" style="swimlane;childLayout=stackLayout;horizontal=1;startSize=80;horizontalStack=0;rounded=1;fontSize=26;fontStyle=0;strokeWidth=2;resizeParent=0;resizeLast=1;shadow=0;dashed=0;align=center;" vertex="1" parent="1">
          <mxGeometry x="1960" y="380" width="410" height="180" as="geometry" />
        </mxCell>
        <mxCell id="LnWvkaZ6cpwe4d5sANfP-44" value="нажатие &quot;назад&quot;" style="edgeStyle=none;rounded=0;orthogonalLoop=1;jettySize=auto;html=1;exitX=0.75;exitY=1;exitDx=0;exitDy=0;entryX=0.75;entryY=0;entryDx=0;entryDy=0;fontSize=26;startArrow=none;startFill=0;endArrow=classic;endFill=1;strokeWidth=2;" edge="1" parent="1" source="LnWvkaZ6cpwe4d5sANfP-19" target="LnWvkaZ6cpwe4d5sANfP-20">
          <mxGeometry x="0.0665" y="67" relative="1" as="geometry">
            <mxPoint as="offset" />
          </mxGeometry>
        </mxCell>
        <mxCell id="LnWvkaZ6cpwe4d5sANfP-48" value="нажатие ПКМ &lt;br&gt;на аниме из списка" style="edgeStyle=none;rounded=0;orthogonalLoop=1;jettySize=auto;html=1;entryX=0;entryY=0.25;entryDx=0;entryDy=0;fontSize=26;startArrow=none;startFill=0;endArrow=classic;endFill=1;strokeWidth=2;exitX=1;exitY=1;exitDx=0;exitDy=0;" edge="1" parent="1" source="LnWvkaZ6cpwe4d5sANfP-19" target="LnWvkaZ6cpwe4d5sANfP-11">
          <mxGeometry x="-0.1138" y="-19" relative="1" as="geometry">
            <mxPoint x="730" y="80" as="sourcePoint" />
            <mxPoint as="offset" />
          </mxGeometry>
        </mxCell>
        <mxCell id="LnWvkaZ6cpwe4d5sANfP-19" value="Просмотр страницы &#xa;выбранного списка аниме пользователя" style="swimlane;childLayout=stackLayout;horizontal=1;startSize=80;horizontalStack=0;rounded=1;fontSize=26;fontStyle=0;strokeWidth=2;resizeParent=0;resizeLast=1;shadow=0;dashed=0;align=center;" vertex="1" parent="1">
          <mxGeometry x="180" y="-80" width="500" height="150" as="geometry" />
        </mxCell>
        <mxCell id="LnWvkaZ6cpwe4d5sANfP-38" value="нажатие ПКМ &lt;br&gt;на один из списков аниме" style="edgeStyle=none;rounded=0;orthogonalLoop=1;jettySize=auto;html=1;exitX=0.5;exitY=0;exitDx=0;exitDy=0;entryX=0.5;entryY=1;entryDx=0;entryDy=0;fontSize=26;startArrow=none;startFill=0;endArrow=classic;endFill=1;strokeWidth=2;" edge="1" parent="1" source="LnWvkaZ6cpwe4d5sANfP-20" target="LnWvkaZ6cpwe4d5sANfP-19">
          <mxGeometry x="-0.0877" y="202" relative="1" as="geometry">
            <mxPoint as="offset" />
          </mxGeometry>
        </mxCell>
        <mxCell id="LnWvkaZ6cpwe4d5sANfP-43" value="нажатие на кнопку &lt;br&gt;список аниме" style="edgeStyle=none;rounded=0;orthogonalLoop=1;jettySize=auto;html=1;exitX=0.5;exitY=1;exitDx=0;exitDy=0;entryX=0.5;entryY=0;entryDx=0;entryDy=0;fontSize=26;startArrow=none;startFill=0;endArrow=classic;endFill=1;strokeWidth=2;" edge="1" parent="1" source="LnWvkaZ6cpwe4d5sANfP-20" target="LnWvkaZ6cpwe4d5sANfP-21">
          <mxGeometry x="-0.021" y="-137" relative="1" as="geometry">
            <mxPoint y="-1" as="offset" />
          </mxGeometry>
        </mxCell>
        <mxCell id="LnWvkaZ6cpwe4d5sANfP-20" value="Просмотр страницы &#xa;пользователя" style="swimlane;childLayout=stackLayout;horizontal=1;startSize=80;horizontalStack=0;rounded=1;fontSize=26;fontStyle=0;strokeWidth=2;resizeParent=0;resizeLast=1;shadow=0;dashed=0;align=center;" vertex="1" parent="1">
          <mxGeometry x="209" y="250" width="410" height="140" as="geometry" />
        </mxCell>
        <mxCell id="LnWvkaZ6cpwe4d5sANfP-42" value="нажатие &quot;назад&quot;" style="edgeStyle=none;rounded=0;orthogonalLoop=1;jettySize=auto;html=1;exitX=0.75;exitY=0;exitDx=0;exitDy=0;entryX=0.75;entryY=1;entryDx=0;entryDy=0;fontSize=26;startArrow=none;startFill=0;endArrow=classic;endFill=1;strokeWidth=2;" edge="1" parent="1" source="LnWvkaZ6cpwe4d5sANfP-21" target="LnWvkaZ6cpwe4d5sANfP-20">
          <mxGeometry x="-0.1912" y="-103" relative="1" as="geometry">
            <mxPoint y="1" as="offset" />
          </mxGeometry>
        </mxCell>
        <mxCell id="LnWvkaZ6cpwe4d5sANfP-45" value="нажатие ПКМ на аниме&amp;nbsp;" style="edgeStyle=none;rounded=0;orthogonalLoop=1;jettySize=auto;html=1;exitX=1;exitY=0.75;exitDx=0;exitDy=0;entryX=0;entryY=1;entryDx=0;entryDy=0;fontSize=26;startArrow=none;startFill=0;endArrow=classic;endFill=1;strokeWidth=2;" edge="1" parent="1" source="LnWvkaZ6cpwe4d5sANfP-21" target="LnWvkaZ6cpwe4d5sANfP-11">
          <mxGeometry x="-0.0039" y="-40" relative="1" as="geometry">
            <Array as="points">
              <mxPoint x="880" y="700" />
            </Array>
            <mxPoint x="-1" as="offset" />
          </mxGeometry>
        </mxCell>
        <mxCell id="LnWvkaZ6cpwe4d5sANfP-21" value="Просмотр страницы &#xa;всех аниме в списках пользователя" style="swimlane;childLayout=stackLayout;horizontal=1;startSize=80;horizontalStack=0;rounded=1;fontSize=26;fontStyle=0;strokeWidth=2;resizeParent=0;resizeLast=1;shadow=0;dashed=0;align=center;" vertex="1" parent="1">
          <mxGeometry x="190" y="670" width="460" height="160" as="geometry" />
        </mxCell>
        <mxCell id="LnWvkaZ6cpwe4d5sANfP-26" value="нажатие &quot;назад&quot;" style="edgeStyle=none;rounded=0;orthogonalLoop=1;jettySize=auto;html=1;exitX=0;exitY=0.75;exitDx=0;exitDy=0;fontSize=26;startArrow=none;startFill=0;endArrow=classic;endFill=1;strokeWidth=2;entryX=1;entryY=0.25;entryDx=0;entryDy=0;" edge="1" parent="1" source="LnWvkaZ6cpwe4d5sANfP-22" target="LnWvkaZ6cpwe4d5sANfP-11">
          <mxGeometry x="-0.2611" y="45" relative="1" as="geometry">
            <mxPoint x="1570" y="500" as="targetPoint" />
            <mxPoint as="offset" />
          </mxGeometry>
        </mxCell>
        <mxCell id="LnWvkaZ6cpwe4d5sANfP-22" value="Просмотр страницы &#xa;выбранного персонажа" style="swimlane;childLayout=stackLayout;horizontal=1;startSize=80;horizontalStack=0;rounded=1;fontSize=26;fontStyle=0;strokeWidth=2;resizeParent=0;resizeLast=1;shadow=0;dashed=0;align=center;" vertex="1" parent="1">
          <mxGeometry x="1950" y="60" width="370" height="200" as="geometry" />
        </mxCell>
        <mxCell id="LnWvkaZ6cpwe4d5sANfP-32" value="нажатие&lt;br&gt;&quot;назад&quot;" style="edgeStyle=none;rounded=0;orthogonalLoop=1;jettySize=auto;html=1;exitX=0.75;exitY=1;exitDx=0;exitDy=0;entryX=0.75;entryY=0;entryDx=0;entryDy=0;fontSize=26;startArrow=none;startFill=0;endArrow=classic;endFill=1;strokeWidth=2;" edge="1" parent="1" source="LnWvkaZ6cpwe4d5sANfP-23" target="LnWvkaZ6cpwe4d5sANfP-11">
          <mxGeometry x="0.0984" y="25" relative="1" as="geometry">
            <mxPoint as="offset" />
          </mxGeometry>
        </mxCell>
        <mxCell id="LnWvkaZ6cpwe4d5sANfP-23" value="Просмотр страницы &#xa;выбранного человека" style="swimlane;childLayout=stackLayout;horizontal=1;startSize=80;horizontalStack=0;rounded=1;fontSize=26;fontStyle=0;strokeWidth=2;resizeParent=0;resizeLast=1;shadow=0;dashed=0;align=center;" vertex="1" parent="1">
          <mxGeometry x="1056" y="-60" width="370" height="170" as="geometry" />
        </mxCell>
        <mxCell id="LnWvkaZ6cpwe4d5sANfP-27" value="нажатие пкм &lt;br&gt;по главному персонажу" style="edgeStyle=none;rounded=0;orthogonalLoop=1;jettySize=auto;html=1;entryX=0;entryY=0.5;entryDx=0;entryDy=0;fontSize=26;startArrow=none;startFill=0;endArrow=classic;endFill=1;strokeWidth=2;" edge="1" parent="1" source="LnWvkaZ6cpwe4d5sANfP-11" target="LnWvkaZ6cpwe4d5sANfP-22">
          <mxGeometry x="0.1413" y="58" relative="1" as="geometry">
            <mxPoint y="1" as="offset" />
          </mxGeometry>
        </mxCell>
        <mxCell id="LnWvkaZ6cpwe4d5sANfP-58" value="" style="edgeStyle=none;rounded=0;orthogonalLoop=1;jettySize=auto;html=1;exitX=0.5;exitY=0;exitDx=0;exitDy=0;entryX=0.5;entryY=1;entryDx=0;entryDy=0;fontSize=30;startArrow=none;startFill=0;endArrow=classic;endFill=1;strokeWidth=3;strokeColor=#FF0A0A;" edge="1" parent="1" source="LnWvkaZ6cpwe4d5sANfP-59" target="LnWvkaZ6cpwe4d5sANfP-13">
          <mxGeometry x="-1" y="-117" relative="1" as="geometry">
            <mxPoint x="1340" y="976" as="sourcePoint" />
            <mxPoint x="-7" y="40" as="offset" />
          </mxGeometry>
        </mxCell>
        <mxCell id="LnWvkaZ6cpwe4d5sANfP-59" value="" style="ellipse;shape=doubleEllipse;whiteSpace=wrap;html=1;aspect=fixed;fontSize=30;strokeColor=#FF0D0D;strokeWidth=1;fillColor=#000000;perimeterSpacing=0;" vertex="1" parent="1">
          <mxGeometry x="1300" y="980" width="80" height="80" as="geometry" />
        </mxCell>
        <mxCell id="LnWvkaZ6cpwe4d5sANfP-67" value="нажатие ПКМ &lt;br&gt;на найденное аниме" style="edgeStyle=none;rounded=0;orthogonalLoop=1;jettySize=auto;html=1;exitX=0;exitY=1;exitDx=0;exitDy=0;entryX=0.835;entryY=0.014;entryDx=0;entryDy=0;entryPerimeter=0;fontSize=30;startArrow=none;startFill=0;endArrow=classic;endFill=1;endSize=9;strokeColor=#080000;strokeWidth=2;" edge="1" parent="1" source="LnWvkaZ6cpwe4d5sANfP-66" target="LnWvkaZ6cpwe4d5sANfP-11">
          <mxGeometry x="-0.0311" y="41" relative="1" as="geometry">
            <mxPoint y="1" as="offset" />
          </mxGeometry>
        </mxCell>
        <mxCell id="LnWvkaZ6cpwe4d5sANfP-68" style="edgeStyle=none;rounded=0;orthogonalLoop=1;jettySize=auto;html=1;exitX=0;exitY=0.5;exitDx=0;exitDy=0;entryX=0.5;entryY=0;entryDx=0;entryDy=0;fontSize=30;startArrow=none;startFill=0;endArrow=classic;endFill=1;endSize=9;strokeColor=#080000;strokeWidth=2;" edge="1" parent="1" source="LnWvkaZ6cpwe4d5sANfP-66" target="LnWvkaZ6cpwe4d5sANfP-23">
          <mxGeometry relative="1" as="geometry" />
        </mxCell>
        <mxCell id="LnWvkaZ6cpwe4d5sANfP-69" value="нажатие ПКМ&lt;br&gt;на найденного человека" style="edgeLabel;html=1;align=center;verticalAlign=middle;resizable=0;points=[];fontSize=30;" vertex="1" connectable="0" parent="LnWvkaZ6cpwe4d5sANfP-68">
          <mxGeometry x="-0.1961" y="-1" relative="1" as="geometry">
            <mxPoint x="-113" y="-23" as="offset" />
          </mxGeometry>
        </mxCell>
        <mxCell id="LnWvkaZ6cpwe4d5sANfP-70" style="edgeStyle=none;rounded=0;orthogonalLoop=1;jettySize=auto;html=1;exitX=0.25;exitY=1;exitDx=0;exitDy=0;entryX=0.25;entryY=0;entryDx=0;entryDy=0;fontSize=30;startArrow=none;startFill=0;endArrow=classic;endFill=1;endSize=9;strokeColor=#080000;strokeWidth=2;" edge="1" parent="1" source="LnWvkaZ6cpwe4d5sANfP-66" target="LnWvkaZ6cpwe4d5sANfP-22">
          <mxGeometry relative="1" as="geometry">
            <mxPoint x="1760" y="-340" as="sourcePoint" />
            <mxPoint x="2030" y="40" as="targetPoint" />
            <Array as="points" />
          </mxGeometry>
        </mxCell>
        <mxCell id="LnWvkaZ6cpwe4d5sANfP-71" value="нажатие ПКМ &lt;br style=&quot;font-size: 29px;&quot;&gt;на найденного персонажа" style="edgeLabel;html=1;align=center;verticalAlign=middle;resizable=0;points=[];fontSize=29;" vertex="1" connectable="0" parent="LnWvkaZ6cpwe4d5sANfP-70">
          <mxGeometry x="0.6558" y="4" relative="1" as="geometry">
            <mxPoint x="183" y="-32" as="offset" />
          </mxGeometry>
        </mxCell>
        <mxCell id="LnWvkaZ6cpwe4d5sANfP-66" value="Страница поиска" style="swimlane;childLayout=stackLayout;horizontal=1;startSize=80;horizontalStack=0;rounded=1;fontSize=26;fontStyle=0;strokeWidth=2;resizeParent=0;resizeLast=1;shadow=0;dashed=0;align=center;" vertex="1" parent="1">
          <mxGeometry x="1920" y="-480" width="370" height="170" as="geometry" />
        </mxCell>
        <mxCell id="LnWvkaZ6cpwe4d5sANfP-74" value="Закрытие&lt;br&gt;сайта" style="endArrow=classic;html=1;rounded=0;fontSize=29;endSize=11;strokeColor=#080000;strokeWidth=2;exitX=0;exitY=0.75;exitDx=0;exitDy=0;entryX=1;entryY=0.5;entryDx=0;entryDy=0;" edge="1" parent="1" source="LnWvkaZ6cpwe4d5sANfP-64" target="LnWvkaZ6cpwe4d5sANfP-2">
          <mxGeometry x="0.0965" y="-66" width="50" height="50" relative="1" as="geometry">
            <mxPoint x="-320" y="590" as="sourcePoint" />
            <mxPoint x="-270" y="540" as="targetPoint" />
            <mxPoint as="offset" />
          </mxGeometry>
        </mxCell>
      </root>
    </mxGraphModel>
  </diagram>
</mxfile>
